<?xml version="1.0" standalone="no"?>
<!DOCTYPE svg PUBLIC "-//W3C//DTD SVG 20010904//EN"
 "http://www.w3.org/TR/2001/REC-SVG-20010904/DTD/svg10.dtd">
<svg version="1.0" xmlns="http://www.w3.org/2000/svg"
 width="800.000000pt" height="800.000000pt" viewBox="0 0 667.000000 374.000000"
 preserveAspectRatio="xMidYMid meet">

<g transform="translate(0.000000,374.000000) scale(0.100000,-0.100000)"
fill="#8A2BE2" stroke="none">
<path d="M3250 2628 c-46 -79 -113 -195 -150 -258 -37 -63 -77 -133 -90 -155
-12 -22 -31 -53 -40 -70 -10 -16 -34 -59 -55 -95 -21 -36 -45 -78 -55 -95 -28
-48 -126 -216 -151 -261 -23 -40 -159 -275 -300 -518 -38 -66 -69 -123 -69
-127 0 -3 -6 -12 -14 -18 -8 -7 -19 -25 -25 -42 l-10 -29 214 0 213 0 7 68
c33 327 148 607 348 846 122 147 300 289 454 365 46 23 83 46 83 51 0 10 -38
81 -75 140 -20 33 -112 190 -158 270 -45 80 -37 85 -127 -72z"/>
<path d="M3663 1994 c-241 -126 -422 -314 -541 -564 -59 -124 -112 -327 -112
-428 l0 -42 128 0 128 0 13 78 c52 320 231 573 502 715 46 24 91 46 99 49 13
5 13 9 2 28 -8 13 -22 37 -32 54 -49 86 -91 156 -95 156 -3 0 -44 -21 -92 -46z"/>
<path d="M3934 1515 c-138 -67 -236 -165 -311 -310 -25 -50 -46 -121 -68 -227
-3 -17 22 -18 411 -18 389 0 413 1 407 18 -3 9 -10 22 -14 27 -4 6 -32 54 -63
108 -31 53 -81 141 -112 195 -31 53 -62 106 -68 117 -64 111 -79 135 -84 135
-4 0 -48 -20 -98 -45z"/>
</g>
</svg>
