<svg xmlns="http://www.w3.org/2000/svg" xmlns:xlink="http://www.w3.org/1999/xlink" xmlns:lucid="lucid" width="5487" height="2287"><g transform="translate(983.5 663.5)" lucid:page-tab-id="0_0"><path d="M-1000-1000h5500v3000h-5500z" fill="#fff"/><path d="M0-634a6 6 0 0 1 6-6h628a6 6 0 0 1 6 6v308a6 6 0 0 1-6 6H6a6 6 0 0 1-6-6zM1920-634a6 6 0 0 1 6-6h628a6 6 0 0 1 6 6v308a6 6 0 0 1-6 6h-628a6 6 0 0 1-6-6zM2880-634a6 6 0 0 1 6-6h628a6 6 0 0 1 6 6v308a6 6 0 0 1-6 6h-628a6 6 0 0 1-6-6zM960-634a6 6 0 0 1 6-6h628a6 6 0 0 1 6 6v308a6 6 0 0 1-6 6H966a6 6 0 0 1-6-6zM0 1286a6 6 0 0 1 6-6h628a6 6 0 0 1 6 6v308a6 6 0 0 1-6 6H6a6 6 0 0 1-6-6zM1920 1286a6 6 0 0 1 6-6h628a6 6 0 0 1 6 6v308a6 6 0 0 1-6 6h-628a6 6 0 0 1-6-6zM2880 1286a6 6 0 0 1 6-6h628a6 6 0 0 1 6 6v308a6 6 0 0 1-6 6h-628a6 6 0 0 1-6-6zM970 1286a6 6 0 0 1 6-6h628a6 6 0 0 1 6 6v308a6 6 0 0 1-6 6H976a6 6 0 0 1-6-6zM-960-634a6 6 0 0 1 6-6h628a6 6 0 0 1 6 6v308a6 6 0 0 1-6 6h-628a6 6 0 0 1-6-6zM-960 1286a6 6 0 0 1 6-6h628a6 6 0 0 1 6 6v308a6 6 0 0 1-6 6h-628a6 6 0 0 1-6-6zM3840-634a6 6 0 0 1 6-6h628a6 6 0 0 1 6 6v308a6 6 0 0 1-6 6h-628a6 6 0 0 1-6-6zM3840 1286a6 6 0 0 1 6-6h628a6 6 0 0 1 6 6v308a6 6 0 0 1-6 6h-628a6 6 0 0 1-6-6z" stroke="#282c33" stroke-width="7" fill-opacity="0"/><path d="M320-313v1586" stroke="#3a414a" stroke-width="7" fill="none"/><path d="M323.48-312.9h-6.96v-3.6h6.96zM323.48 1276.5h-6.96v-3.6h6.96z" stroke="#3a414a" stroke-width=".05" fill="#3a414a"/><path d="M1280.02-313l9.96 1586" stroke="#3a414a" stroke-width="7" fill="none"/><path d="M1283.5-312.93l-6.95.04-.02-3.6h6.94zM1293.47 1276.5h-6.94l-.03-3.57 6.95-.04z" stroke="#3a414a" stroke-width=".05" fill="#3a414a"/><path d="M2240-313v1586" stroke="#3a414a" stroke-width="7" fill="none"/><path d="M2243.47-312.9h-6.94v-3.6h6.94zM2243.47 1276.5h-6.94v-3.6h6.94z" stroke="#3a414a" stroke-width=".05" fill="#3a414a"/><path d="M3200-313v1586" stroke="#3a414a" stroke-width="7" fill="none"/><path d="M3203.47-312.9h-6.94v-3.6h6.94zM3203.47 1276.5h-6.94v-3.6h6.94z" stroke="#3a414a" stroke-width=".05" fill="#3a414a"/><path d="M3080-514a6 6 0 0 1 6-6h228a6 6 0 0 1 6 6v58a6 6 0 0 1-6 6h-228a6 6 0 0 1-6-6z" fill="none"/><use xlink:href="#a" transform="matrix(1,0,0,1,3080,-520) translate(14.629629629629619 53.33333333333334)"/><path d="M3080 1416a6 6 0 0 1 6-6h228a6 6 0 0 1 6 6v48a6 6 0 0 1-6 6h-228a6 6 0 0 1-6-6z" fill="none"/><use xlink:href="#a" transform="matrix(1,0,0,1,3080,1410) translate(14.629629629629619 53.33333333333334)"/><path d="M2120-504a6 6 0 0 1 6-6h228a6 6 0 0 1 6 6v48a6 6 0 0 1-6 6h-228a6 6 0 0 1-6-6z" fill="none"/><use xlink:href="#b" transform="matrix(1,0,0,1,2120,-510) translate(-50.09259259259261 53.33333333333334)"/><path d="M2120 1426a6 6 0 0 1 6-6h228a6 6 0 0 1 6 6v48a6 6 0 0 1-6 6h-228a6 6 0 0 1-6-6z" fill="none"/><use xlink:href="#b" transform="matrix(1,0,0,1,2120,1420) translate(-50.09259259259261 53.33333333333334)"/><path d="M1170 1416a6 6 0 0 1 6-6h228a6 6 0 0 1 6 6v48a6 6 0 0 1-6 6h-228a6 6 0 0 1-6-6z" fill="none"/><use xlink:href="#c" transform="matrix(1,0,0,1,1170,1410) translate(22.129629629629633 53.33333333333334)"/><path d="M1160-514a6 6 0 0 1 6-6h228a6 6 0 0 1 6 6v48a6 6 0 0 1-6 6h-228a6 6 0 0 1-6-6z" fill="none"/><use xlink:href="#c" transform="matrix(1,0,0,1,1160,-520) translate(22.129629629629633 53.33333333333334)"/><path d="M200 1416a6 6 0 0 1 6-6h228a6 6 0 0 1 6 6v48a6 6 0 0 1-6 6H206a6 6 0 0 1-6-6z" fill="none"/><use xlink:href="#d" transform="matrix(1,0,0,1,200,1410) translate(-24.166666666666686 53.33333333333334)"/><path d="M200-504a6 6 0 0 1 6-6h228a6 6 0 0 1 6 6v48a6 6 0 0 1-6 6H206a6 6 0 0 1-6-6z" fill="none"/><use xlink:href="#d" transform="matrix(1,0,0,1,200,-510) translate(-24.166666666666686 53.33333333333334)"/><path d="M-640-313v1586" stroke="#3a414a" stroke-width="7" fill="none"/><path d="M-636.52-312.9h-6.96v-3.6h6.96zM-636.52 1276.5h-6.96v-3.6h6.96z" stroke="#3a414a" stroke-width=".05" fill="#3a414a"/><path d="M-760 1416a6 6 0 0 1 6-6h228a6 6 0 0 1 6 6v48a6 6 0 0 1-6 6h-228a6 6 0 0 1-6-6z" fill="none"/><use xlink:href="#e" transform="matrix(1,0,0,1,-760,1410) translate(21.944444444444443 53.33333333333334)"/><path d="M-760-504a6 6 0 0 1 6-6h228a6 6 0 0 1 6 6v48a6 6 0 0 1-6 6h-228a6 6 0 0 1-6-6z" fill="none"/><use xlink:href="#e" transform="matrix(1,0,0,1,-760,-510) translate(21.944444444444443 53.33333333333334)"/><path d="M-636.5-158.9h915.7M-636.4-158.9h-3.6" stroke="#3a414a" stroke-width="7" fill="none"/><path d="M313-158.9l-30.3 17.5v-35z" stroke="#3a414a" stroke-width="7" fill="#3a414a"/><path d="M323.5 0h917.68M323.6 0H320" stroke="#3a414a" stroke-width="7" fill="none"/><path d="M1275 0l-30.32 17.5v-35z" stroke="#3a414a" stroke-width="7" fill="#3a414a"/><path d="M1279.5 161.52H360.8M1279.4 161.52h3.6" stroke="#3a414a" stroke-width="7" fill="none"/><path d="M327 161.52l30.3-17.5v35z" stroke="#3a414a" stroke-width="7" fill="#3a414a"/><path d="M323.5 320h1875.7M323.6 320H320" stroke="#3a414a" stroke-width="7" fill="none"/><path d="M2233 320l-30.3 17.5v-35z" stroke="#3a414a" stroke-width="7" fill="#3a414a"/><path d="M-420-234a6 6 0 0 1 6-6H74a6 6 0 0 1 6 6v68a6 6 0 0 1-6 6h-488a6 6 0 0 1-6-6z" fill="none"/><use xlink:href="#f" transform="matrix(1,0,0,1,-420,-240) translate(83.03703703703701 50.66666666666667)"/><use xlink:href="#g" transform="matrix(1,0,0,1,-420,-240) translate(251.48148148148147 50.66666666666667)"/><use xlink:href="#h" transform="matrix(1,0,0,1,-420,-240) translate(334.14814814814815 50.66666666666667)"/><path d="M560-74a6 6 0 0 1 6-6h488a6 6 0 0 1 6 6v68a6 6 0 0 1-6 6H566a6 6 0 0 1-6-6z" fill="none"/><use xlink:href="#i" transform="matrix(1,0,0,1,560,-80) translate(65.18518518518516 50.66666666666667)"/><use xlink:href="#j" transform="matrix(1,0,0,1,560,-80) translate(192.44444444444443 50.66666666666667)"/><use xlink:href="#k" transform="matrix(1,0,0,1,560,-80) translate(284.14814814814815 50.66666666666667)"/><path d="M560 86a6 6 0 0 1 6-6h488a6 6 0 0 1 6 6v68a6 6 0 0 1-6 6H566a6 6 0 0 1-6-6z" fill="none"/><use xlink:href="#l" transform="matrix(1,0,0,1,560,80) translate(72.74074074074073 50.66666666666667)"/><use xlink:href="#k" transform="matrix(1,0,0,1,560,80) translate(276.5925925925926 50.66666666666667)"/><path d="M1040 246a6 6 0 0 1 6-6h488a6 6 0 0 1 6 6v68a6 6 0 0 1-6 6h-488a6 6 0 0 1-6-6z" fill="none"/><use xlink:href="#m" transform="matrix(1,0,0,1,1040,240) translate(7.481481481481467 50.66666666666667)"/><use xlink:href="#n" transform="matrix(1,0,0,1,1040,240) translate(241.11111111111111 50.66666666666667)"/><path d="M2236.5 480H360.8M2236.4 480h3.6" stroke="#3a414a" stroke-width="7" fill="none"/><path d="M327 480l30.3-17.5v35z" stroke="#3a414a" stroke-width="7" fill="#3a414a"/><path d="M1040 406a6 6 0 0 1 6-6h488a6 6 0 0 1 6 6v68a6 6 0 0 1-6 6h-488a6 6 0 0 1-6-6z" fill="none"/><use xlink:href="#o" transform="matrix(1,0,0,1,1040,400) translate(5.925925925925924 50.66666666666667)"/><use xlink:href="#p" transform="matrix(1,0,0,1,1040,400) translate(186.37037037037035 50.66666666666667)"/><path d="M323.5 640h2835.7M323.6 640H320" stroke="#3a414a" stroke-width="7" fill="none"/><path d="M3193 640l-30.3 17.5v-35z" stroke="#3a414a" stroke-width="7" fill="#3a414a"/><path d="M1100 566a6 6 0 0 1 6-6h1288a6 6 0 0 1 6 6v68a6 6 0 0 1-6 6H1106a6 6 0 0 1-6-6z" fill="none"/><use xlink:href="#i" transform="matrix(1,0,0,1,1100,560) translate(462.074074074074 50.66666666666667)"/><use xlink:href="#j" transform="matrix(1,0,0,1,1100,560) translate(589.3333333333333 50.66666666666667)"/><use xlink:href="#q" transform="matrix(1,0,0,1,1100,560) translate(681.037037037037 50.66666666666667)"/><path d="M3196.5 793.2H360.8M3196.4 793.2h3.6" stroke="#3a414a" stroke-width="7" fill="none"/><path d="M327 793.2l30.3-17.5v35z" stroke="#3a414a" stroke-width="7" fill="#3a414a"/><path d="M1120 726a6 6 0 0 1 6-6h1288a6 6 0 0 1 6 6v68a6 6 0 0 1-6 6H1126a6 6 0 0 1-6-6z" fill="none"/><use xlink:href="#r" transform="matrix(1,0,0,1,1120,720) translate(484.2962962962963 50.66666666666667)"/><use xlink:href="#q" transform="matrix(1,0,0,1,1120,720) translate(658.8148148148148 50.66666666666667)"/><path d="M316.5 1158.55h-915.7M316.4 1158.55h3.6" stroke="#3a414a" stroke-width="7" fill="none"/><path d="M-633 1158.55l30.3-17.5v35z" stroke="#3a414a" stroke-width="7" fill="#3a414a"/><path d="M-490 1026a6 6 0 0 1 6-6h628a6 6 0 0 1 6 6v108a6 6 0 0 1-6 6h-628a6 6 0 0 1-6-6z" fill="none"/><use xlink:href="#s" transform="matrix(1,0,0,1,-490,1020) translate(67.18518518518513 70.66666666666667)"/><use xlink:href="#t" transform="matrix(1,0,0,1,-490,1020) translate(244.66666666666663 70.66666666666667)"/><use xlink:href="#u" transform="matrix(1,0,0,1,-490,1020) translate(445.7037037037037 70.66666666666667)"/><path d="M4160-313v1586" stroke="#3a414a" stroke-width="7" fill="none"/><path d="M4163.48-312.9h-6.95v-3.6h6.95zM4163.48 1276.5h-6.95v-3.6h6.95z" stroke="#3a414a" stroke-width=".05" fill="#3a414a"/><path d="M4040-514a6 6 0 0 1 6-6h228a6 6 0 0 1 6 6v48a6 6 0 0 1-6 6h-228a6 6 0 0 1-6-6z" fill="none"/><use xlink:href="#v" transform="matrix(1,0,0,1,4040,-520) translate(-129.72222222222229 53.33333333333334)"/><path d="M4040 1416a6 6 0 0 1 6-6h228a6 6 0 0 1 6 6v48a6 6 0 0 1-6 6h-228a6 6 0 0 1-6-6z" fill="none"/><use xlink:href="#v" transform="matrix(1,0,0,1,4040,1410) translate(-129.72222222222229 53.33333333333334)"/><path d="M2243.5 960h1875.7M2243.6 960h-3.6" stroke="#3a414a" stroke-width="7" fill="none"/><path d="M4153 960l-30.3 17.5v-35z" stroke="#3a414a" stroke-width="7" fill="#3a414a"/><path d="M4156.5 1080H360.8M4156.4 1080h3.6" stroke="#3a414a" stroke-width="7" fill="none"/><path d="M327 1080l30.3-17.5v35z" stroke="#3a414a" stroke-width="7" fill="#3a414a"/><path d="M1290 236.5v-73" stroke="#3a414a" stroke-width="7" fill="none"/><path d="M1293.47 240h-6.94v-3.6h6.94z" stroke="#3a414a" stroke-width=".05" fill="#3a414a"/><path d="M1290 163.6V160" stroke="#3a414a" stroke-width="7" fill="none"/><path d="M2900 846a6 6 0 0 1 6-6h748a6 6 0 0 1 6 6v148a6 6 0 0 1-6 6h-748a6 6 0 0 1-6-6z" fill="none"/><g><use xlink:href="#m" transform="matrix(1,0,0,1,2900,840) translate(67.77777777777777 90.66666666666667)"/><use xlink:href="#w" transform="matrix(1,0,0,1,2900,840) translate(301.4074074074074 90.66666666666667)"/></g><path d="M1520 966a6 6 0 0 1 6-6h748a6 6 0 0 1 6 6v148a6 6 0 0 1-6 6h-748a6 6 0 0 1-6-6z" fill="none"/><g><use xlink:href="#x" transform="matrix(1,0,0,1,1520,960) translate(60.37037037037038 90.66666666666667)"/><use xlink:href="#y" transform="matrix(1,0,0,1,1520,960) translate(308.8148148148148 90.66666666666667)"/></g><defs><path d="M127-220V0H93v-220H8v-28h204v28h-85" id="z"/><path d="M100-194c63 0 86 42 84 106H49c0 40 14 67 53 68 26 1 43-12 49-29l28 8c-11 28-37 45-77 45C44 4 14-33 15-96c1-61 26-98 85-98zm52 81c6-60-76-77-97-28-3 7-6 17-6 28h103" id="A"/><path d="M135-143c-3-34-86-38-87 0 15 53 115 12 119 90S17 21 10-45l28-5c4 36 97 45 98 0-10-56-113-15-118-90-4-57 82-63 122-42 12 7 21 19 24 35" id="B"/><path d="M59-47c-2 24 18 29 38 22v24C64 9 27 4 27-40v-127H5v-23h24l9-43h21v43h35v23H59v120" id="C"/><path d="M24-231v-30h32v30H24zM24 0v-190h32V0H24" id="D"/><path d="M117-194c89-4 53 116 60 194h-32v-121c0-31-8-49-39-48C34-167 62-67 57 0H25l-1-190h30c1 10-1 24 2 32 11-22 29-35 61-36" id="E"/><path d="M177-190C167-65 218 103 67 71c-23-6-38-20-44-43l32-5c15 47 100 32 89-28v-30C133-14 115 1 83 1 29 1 15-40 15-95c0-56 16-97 71-98 29-1 48 16 59 35 1-10 0-23 2-32h30zM94-22c36 0 50-32 50-73 0-42-14-75-50-75-39 0-46 34-46 75s6 73 46 73" id="F"/><g id="a"><use transform="matrix(0.1851851851851852,0,0,0.1851851851851852,0,0)" xlink:href="#z"/><use transform="matrix(0.1851851851851852,0,0,0.1851851851851852,33.14814814814815,0)" xlink:href="#A"/><use transform="matrix(0.1851851851851852,0,0,0.1851851851851852,70.18518518518519,0)" xlink:href="#B"/><use transform="matrix(0.1851851851851852,0,0,0.1851851851851852,103.51851851851853,0)" xlink:href="#C"/><use transform="matrix(0.1851851851851852,0,0,0.1851851851851852,122.03703703703705,0)" xlink:href="#D"/><use transform="matrix(0.1851851851851852,0,0,0.1851851851851852,136.66666666666669,0)" xlink:href="#E"/><use transform="matrix(0.1851851851851852,0,0,0.1851851851851852,173.70370370370372,0)" xlink:href="#F"/></g><path d="M233-177c-1 41-23 64-60 70L243 0h-38l-65-103H63V0H30v-248c88 3 205-21 203 71zM63-129c60-2 137 13 137-47 0-61-80-42-137-45v92" id="G"/><path d="M101-234c-31-9-42 10-38 44h38v23H63V0H32v-167H5v-23h27c-7-52 17-82 69-68v24" id="H"/><path d="M141-36C126-15 110 5 73 4 37 3 15-17 15-53c-1-64 63-63 125-63 3-35-9-54-41-54-24 1-41 7-42 31l-33-3c5-37 33-52 76-52 45 0 72 20 72 64v82c-1 20 7 32 28 27v20c-31 9-61-2-59-35zM48-53c0 20 12 33 32 33 41-3 63-29 60-74-43 2-92-5-92 41" id="I"/><path d="M96-169c-40 0-48 33-48 73s9 75 48 75c24 0 41-14 43-38l32 2c-6 37-31 61-74 61-59 0-76-41-82-99-10-93 101-131 147-64 4 7 5 14 7 22l-32 3c-4-21-16-35-41-35" id="J"/><path d="M100-194c62-1 85 37 85 99 1 63-27 99-86 99S16-35 15-95c0-66 28-99 85-99zM99-20c44 1 53-31 53-75 0-43-8-75-51-75s-53 32-53 75 10 74 51 75" id="K"/><path d="M114-163C36-179 61-72 57 0H25l-1-190h30c1 12-1 29 2 39 6-27 23-49 58-41v29" id="L"/><g id="b"><use transform="matrix(0.1851851851851852,0,0,0.1851851851851852,0,0)" xlink:href="#G"/><use transform="matrix(0.1851851851851852,0,0,0.1851851851851852,47.96296296296297,0)" xlink:href="#A"/><use transform="matrix(0.1851851851851852,0,0,0.1851851851851852,85,0)" xlink:href="#H"/><use transform="matrix(0.1851851851851852,0,0,0.1851851851851852,103.51851851851853,0)" xlink:href="#I"/><use transform="matrix(0.1851851851851852,0,0,0.1851851851851852,140.55555555555554,0)" xlink:href="#J"/><use transform="matrix(0.1851851851851852,0,0,0.1851851851851852,173.88888888888889,0)" xlink:href="#C"/><use transform="matrix(0.1851851851851852,0,0,0.1851851851851852,192.4074074074074,0)" xlink:href="#K"/><use transform="matrix(0.1851851851851852,0,0,0.1851851851851852,229.44444444444443,0)" xlink:href="#L"/><use transform="matrix(0.1851851851851852,0,0,0.1851851851851852,251.48148148148147,0)" xlink:href="#D"/><use transform="matrix(0.1851851851851852,0,0,0.1851851851851852,266.1111111111111,0)" xlink:href="#E"/><use transform="matrix(0.1851851851851852,0,0,0.1851851851851852,303.14814814814815,0)" xlink:href="#F"/></g><path d="M205 0l-28-72H64L36 0H1l101-248h38L239 0h-34zm-38-99l-47-123c-12 45-31 82-46 123h93" id="M"/><path d="M24 0v-261h32V0H24" id="N"/><g id="c"><use transform="matrix(0.1851851851851852,0,0,0.1851851851851852,0,0)" xlink:href="#M"/><use transform="matrix(0.1851851851851852,0,0,0.1851851851851852,44.44444444444445,0)" xlink:href="#E"/><use transform="matrix(0.1851851851851852,0,0,0.1851851851851852,81.4814814814815,0)" xlink:href="#I"/><use transform="matrix(0.1851851851851852,0,0,0.1851851851851852,118.51851851851853,0)" xlink:href="#N"/><use transform="matrix(0.1851851851851852,0,0,0.1851851851851852,133.14814814814815,0)" xlink:href="#D"/><use transform="matrix(0.1851851851851852,0,0,0.1851851851851852,147.77777777777777,0)" xlink:href="#B"/><use transform="matrix(0.1851851851851852,0,0,0.1851851851851852,181.11111111111111,0)" xlink:href="#D"/></g><path d="M63-220v92h138v28H63V0H30v-248h175v28H63" id="O"/><path d="M16-82v-28h88v28H16" id="P"/><path d="M85-194c31 0 48 13 60 33l-1-100h32l1 261h-30c-2-10 0-23-3-31C134-8 116 4 85 4 32 4 16-35 15-94c0-66 23-100 70-100zm9 24c-40 0-46 34-46 75 0 40 6 74 45 74 42 0 51-32 51-76 0-42-9-74-50-73" id="Q"/><g id="d"><use transform="matrix(0.1851851851851852,0,0,0.1851851851851852,0,0)" xlink:href="#O"/><use transform="matrix(0.1851851851851852,0,0,0.1851851851851852,40.55555555555556,0)" xlink:href="#L"/><use transform="matrix(0.1851851851851852,0,0,0.1851851851851852,62.592592592592595,0)" xlink:href="#K"/><use transform="matrix(0.1851851851851852,0,0,0.1851851851851852,99.62962962962963,0)" xlink:href="#E"/><use transform="matrix(0.1851851851851852,0,0,0.1851851851851852,136.66666666666669,0)" xlink:href="#C"/><use transform="matrix(0.1851851851851852,0,0,0.1851851851851852,155.18518518518522,0)" xlink:href="#P"/><use transform="matrix(0.1851851851851852,0,0,0.1851851851851852,177.22222222222226,0)" xlink:href="#A"/><use transform="matrix(0.1851851851851852,0,0,0.1851851851851852,214.25925925925927,0)" xlink:href="#E"/><use transform="matrix(0.1851851851851852,0,0,0.1851851851851852,251.29629629629633,0)" xlink:href="#Q"/></g><path d="M232-93c-1 65-40 97-104 97C67 4 28-28 28-90v-158h33c8 89-33 224 67 224 102 0 64-133 71-224h33v155" id="R"/><g id="e"><use transform="matrix(0.1851851851851852,0,0,0.1851851851851852,0,0)" xlink:href="#R"/><use transform="matrix(0.1851851851851852,0,0,0.1851851851851852,47.96296296296297,0)" xlink:href="#C"/><use transform="matrix(0.1851851851851852,0,0,0.1851851851851852,66.4814814814815,0)" xlink:href="#A"/><use transform="matrix(0.1851851851851852,0,0,0.1851851851851852,103.51851851851853,0)" xlink:href="#E"/><use transform="matrix(0.1851851851851852,0,0,0.1851851851851852,140.55555555555557,0)" xlink:href="#C"/><use transform="matrix(0.1851851851851852,0,0,0.1851851851851852,159.07407407407408,0)" xlink:href="#A"/></g><path d="M212-179c-10-28-35-45-73-45-59 0-87 40-87 99 0 60 29 101 89 101 43 0 62-24 78-52l27 14C228-24 195 4 139 4 59 4 22-46 18-125c-6-104 99-153 187-111 19 9 31 26 39 46" id="S"/><g id="f"><use transform="matrix(0.14814814814814817,0,0,0.14814814814814817,0,0)" xlink:href="#S"/><use transform="matrix(0.14814814814814817,0,0,0.14814814814814817,38.370370370370374,0)" xlink:href="#I"/><use transform="matrix(0.14814814814814817,0,0,0.14814814814814817,68,0)" xlink:href="#L"/><use transform="matrix(0.14814814814814817,0,0,0.14814814814814817,85.62962962962965,0)" xlink:href="#D"/><use transform="matrix(0.14814814814814817,0,0,0.14814814814814817,97.33333333333334,0)" xlink:href="#J"/><use transform="matrix(0.14814814814814817,0,0,0.14814814814814817,124.00000000000001,0)" xlink:href="#I"/></g><g id="g"><use transform="matrix(0.14814814814814817,0,0,0.14814814814814817,0,0)" xlink:href="#H"/><use transform="matrix(0.14814814814814817,0,0,0.14814814814814817,14.814814814814817,0)" xlink:href="#D"/><use transform="matrix(0.14814814814814817,0,0,0.14814814814814817,26.518518518518523,0)" xlink:href="#N"/><use transform="matrix(0.14814814814814817,0,0,0.14814814814814817,38.22222222222223,0)" xlink:href="#A"/></g><path d="M209 0H11v-25l151-195H24v-28h176v25L50-27h159V0" id="T"/><path d="M33 0v-248h34V0H33" id="U"/><path d="M30-248c87 1 191-15 191 75 0 78-77 80-158 76V0H30v-248zm33 125c57 0 124 11 124-50 0-59-68-47-124-48v98" id="V"/><g id="h"><use transform="matrix(0.14814814814814817,0,0,0.14814814814814817,0,0)" xlink:href="#T"/><use transform="matrix(0.14814814814814817,0,0,0.14814814814814817,32.44444444444445,0)" xlink:href="#U"/><use transform="matrix(0.14814814814814817,0,0,0.14814814814814817,47.25925925925927,0)" xlink:href="#V"/></g><path d="M108 0H70L1-190h34L89-25l56-165h34" id="W"/><g id="i"><use transform="matrix(0.14814814814814817,0,0,0.14814814814814817,0,0)" xlink:href="#U"/><use transform="matrix(0.14814814814814817,0,0,0.14814814814814817,14.814814814814817,0)" xlink:href="#E"/><use transform="matrix(0.14814814814814817,0,0,0.14814814814814817,44.44444444444445,0)" xlink:href="#W"/><use transform="matrix(0.14814814814814817,0,0,0.14814814814814817,71.11111111111111,0)" xlink:href="#D"/><use transform="matrix(0.14814814814814817,0,0,0.14814814814814817,82.81481481481482,0)" xlink:href="#I"/></g><path d="M115-194c55 1 70 41 70 98S169 2 115 4C84 4 66-9 55-30l1 105H24l-1-265h31l2 30c10-21 28-34 59-34zm-8 174c40 0 45-34 45-75s-6-73-45-74c-42 0-51 32-51 76 0 43 10 73 51 73" id="X"/><g id="j"><use transform="matrix(0.14814814814814817,0,0,0.14814814814814817,0,0)" xlink:href="#X"/><use transform="matrix(0.14814814814814817,0,0,0.14814814814814817,29.629629629629633,0)" xlink:href="#A"/><use transform="matrix(0.14814814814814817,0,0,0.14814814814814817,59.25925925925927,0)" xlink:href="#L"/></g><g id="k"><use transform="matrix(0.14814814814814817,0,0,0.14814814814814817,0,0)" xlink:href="#I"/><use transform="matrix(0.14814814814814817,0,0,0.14814814814814817,29.629629629629633,0)" xlink:href="#E"/><use transform="matrix(0.14814814814814817,0,0,0.14814814814814817,59.25925925925927,0)" xlink:href="#I"/><use transform="matrix(0.14814814814814817,0,0,0.14814814814814817,88.8888888888889,0)" xlink:href="#N"/><use transform="matrix(0.14814814814814817,0,0,0.14814814814814817,100.59259259259261,0)" xlink:href="#D"/><use transform="matrix(0.14814814814814817,0,0,0.14814814814814817,112.2962962962963,0)" xlink:href="#B"/><use transform="matrix(0.14814814814814817,0,0,0.14814814814814817,138.962962962963,0)" xlink:href="#D"/></g><path d="M84 4C-5 8 30-112 23-190h32v120c0 31 7 50 39 49 72-2 45-101 50-169h31l1 190h-30c-1-10 1-25-2-33-11 22-28 36-60 37" id="Y"/><g id="l"><use transform="matrix(0.14814814814814817,0,0,0.14814814814814817,0,0)" xlink:href="#G"/><use transform="matrix(0.14814814814814817,0,0,0.14814814814814817,38.370370370370374,0)" xlink:href="#D"/><use transform="matrix(0.14814814814814817,0,0,0.14814814814814817,50.07407407407407,0)" xlink:href="#B"/><use transform="matrix(0.14814814814814817,0,0,0.14814814814814817,76.74074074074075,0)" xlink:href="#Y"/><use transform="matrix(0.14814814814814817,0,0,0.14814814814814817,106.37037037037038,0)" xlink:href="#N"/><use transform="matrix(0.14814814814814817,0,0,0.14814814814814817,118.07407407407409,0)" xlink:href="#C"/><use transform="matrix(0.14814814814814817,0,0,0.14814814814814817,132.8888888888889,0)" xlink:href="#I"/><use transform="matrix(0.14814814814814817,0,0,0.14814814814814817,162.51851851851853,0)" xlink:href="#C"/><use transform="matrix(0.14814814814814817,0,0,0.14814814814814817,177.33333333333334,0)" xlink:href="#D"/></g><path d="M106-169C34-169 62-67 57 0H25v-261h32l-1 103c12-21 28-36 61-36 89 0 53 116 60 194h-32v-121c2-32-8-49-39-48" id="Z"/><g id="m"><use transform="matrix(0.14814814814814817,0,0,0.14814814814814817,0,0)" xlink:href="#G"/><use transform="matrix(0.14814814814814817,0,0,0.14814814814814817,38.370370370370374,0)" xlink:href="#D"/><use transform="matrix(0.14814814814814817,0,0,0.14814814814814817,50.07407407407407,0)" xlink:href="#J"/><use transform="matrix(0.14814814814814817,0,0,0.14814814814814817,76.74074074074075,0)" xlink:href="#Z"/><use transform="matrix(0.14814814814814817,0,0,0.14814814814814817,106.37037037037038,0)" xlink:href="#D"/><use transform="matrix(0.14814814814814817,0,0,0.14814814814814817,118.07407407407409,0)" xlink:href="#A"/><use transform="matrix(0.14814814814814817,0,0,0.14814814814814817,147.70370370370372,0)" xlink:href="#B"/><use transform="matrix(0.14814814814814817,0,0,0.14814814814814817,174.37037037037038,0)" xlink:href="#C"/><use transform="matrix(0.14814814814814817,0,0,0.14814814814814817,189.1851851851852,0)" xlink:href="#I"/></g><g id="n"><use transform="matrix(0.14814814814814817,0,0,0.14814814814814817,0,0)" xlink:href="#L"/><use transform="matrix(0.14814814814814817,0,0,0.14814814814814817,17.629629629629633,0)" xlink:href="#A"/><use transform="matrix(0.14814814814814817,0,0,0.14814814814814817,47.25925925925927,0)" xlink:href="#H"/><use transform="matrix(0.14814814814814817,0,0,0.14814814814814817,62.07407407407408,0)" xlink:href="#I"/><use transform="matrix(0.14814814814814817,0,0,0.14814814814814817,91.70370370370371,0)" xlink:href="#J"/><use transform="matrix(0.14814814814814817,0,0,0.14814814814814817,118.37037037037041,0)" xlink:href="#C"/><use transform="matrix(0.14814814814814817,0,0,0.14814814814814817,133.18518518518522,0)" xlink:href="#K"/><use transform="matrix(0.14814814814814817,0,0,0.14814814814814817,162.81481481481484,0)" xlink:href="#L"/><use transform="matrix(0.14814814814814817,0,0,0.14814814814814817,180.44444444444446,0)" xlink:href="#D"/><use transform="matrix(0.14814814814814817,0,0,0.14814814814814817,192.14814814814815,0)" xlink:href="#E"/><use transform="matrix(0.14814814814814817,0,0,0.14814814814814817,221.77777777777777,0)" xlink:href="#F"/></g><g id="o"><use transform="matrix(0.14814814814814817,0,0,0.14814814814814817,0,0)" xlink:href="#S"/><use transform="matrix(0.14814814814814817,0,0,0.14814814814814817,38.370370370370374,0)" xlink:href="#K"/><use transform="matrix(0.14814814814814817,0,0,0.14814814814814817,68,0)" xlink:href="#Q"/><use transform="matrix(0.14814814814814817,0,0,0.14814814814814817,97.62962962962962,0)" xlink:href="#D"/><use transform="matrix(0.14814814814814817,0,0,0.14814814814814817,109.33333333333334,0)" xlink:href="#J"/><use transform="matrix(0.14814814814814817,0,0,0.14814814814814817,136,0)" xlink:href="#A"/></g><path d="M9 0v-24l116-142H16v-24h144v24L44-24h123V0H9" id="aa"/><g id="p"><use transform="matrix(0.14814814814814817,0,0,0.14814814814814817,0,0)" xlink:href="#L"/><use transform="matrix(0.14814814814814817,0,0,0.14814814814814817,17.629629629629633,0)" xlink:href="#A"/><use transform="matrix(0.14814814814814817,0,0,0.14814814814814817,47.25925925925927,0)" xlink:href="#H"/><use transform="matrix(0.14814814814814817,0,0,0.14814814814814817,62.07407407407408,0)" xlink:href="#I"/><use transform="matrix(0.14814814814814817,0,0,0.14814814814814817,91.70370370370371,0)" xlink:href="#C"/><use transform="matrix(0.14814814814814817,0,0,0.14814814814814817,106.51851851851853,0)" xlink:href="#C"/><use transform="matrix(0.14814814814814817,0,0,0.14814814814814817,121.33333333333334,0)" xlink:href="#K"/><use transform="matrix(0.14814814814814817,0,0,0.14814814814814817,150.962962962963,0)" xlink:href="#L"/><use transform="matrix(0.14814814814814817,0,0,0.14814814814814817,168.5925925925926,0)" xlink:href="#D"/><use transform="matrix(0.14814814814814817,0,0,0.14814814814814817,180.29629629629633,0)" xlink:href="#aa"/><use transform="matrix(0.14814814814814817,0,0,0.14814814814814817,206.962962962963,0)" xlink:href="#aa"/><use transform="matrix(0.14814814814814817,0,0,0.14814814814814817,233.62962962962965,0)" xlink:href="#I"/><use transform="matrix(0.14814814814814817,0,0,0.14814814814814817,263.2592592592593,0)" xlink:href="#C"/><use transform="matrix(0.14814814814814817,0,0,0.14814814814814817,278.07407407407413,0)" xlink:href="#K"/></g><g id="q"><use transform="matrix(0.14814814814814817,0,0,0.14814814814814817,0,0)" xlink:href="#C"/><use transform="matrix(0.14814814814814817,0,0,0.14814814814814817,14.814814814814817,0)" xlink:href="#A"/><use transform="matrix(0.14814814814814817,0,0,0.14814814814814817,44.44444444444445,0)" xlink:href="#B"/><use transform="matrix(0.14814814814814817,0,0,0.14814814814814817,71.11111111111111,0)" xlink:href="#C"/><use transform="matrix(0.14814814814814817,0,0,0.14814814814814817,85.92592592592592,0)" xlink:href="#D"/><use transform="matrix(0.14814814814814817,0,0,0.14814814814814817,97.62962962962962,0)" xlink:href="#E"/><use transform="matrix(0.14814814814814817,0,0,0.14814814814814817,127.25925925925925,0)" xlink:href="#F"/></g><g id="r"><use transform="matrix(0.14814814814814817,0,0,0.14814814814814817,0,0)" xlink:href="#G"/><use transform="matrix(0.14814814814814817,0,0,0.14814814814814817,38.370370370370374,0)" xlink:href="#A"/><use transform="matrix(0.14814814814814817,0,0,0.14814814814814817,68,0)" xlink:href="#X"/><use transform="matrix(0.14814814814814817,0,0,0.14814814814814817,97.62962962962962,0)" xlink:href="#K"/><use transform="matrix(0.14814814814814817,0,0,0.14814814814814817,127.25925925925925,0)" xlink:href="#L"/><use transform="matrix(0.14814814814814817,0,0,0.14814814814814817,144.8888888888889,0)" xlink:href="#C"/></g><path d="M240 0l2-218c-23 76-54 145-80 218h-23L58-218 59 0H30v-248h44l77 211c21-75 51-140 76-211h43V0h-30" id="ab"/><g id="s"><use transform="matrix(0.14814814814814817,0,0,0.14814814814814817,0,0)" xlink:href="#ab"/><use transform="matrix(0.14814814814814817,0,0,0.14814814814814817,44.296296296296305,0)" xlink:href="#K"/><use transform="matrix(0.14814814814814817,0,0,0.14814814814814817,73.92592592592594,0)" xlink:href="#B"/><use transform="matrix(0.14814814814814817,0,0,0.14814814814814817,100.59259259259261,0)" xlink:href="#C"/><use transform="matrix(0.14814814814814817,0,0,0.14814814814814817,115.40740740740742,0)" xlink:href="#L"/><use transform="matrix(0.14814814814814817,0,0,0.14814814814814817,133.03703703703707,0)" xlink:href="#I"/></g><g id="t"><use transform="matrix(0.14814814814814817,0,0,0.14814814814814817,0,0)" xlink:href="#L"/><use transform="matrix(0.14814814814814817,0,0,0.14814814814814817,17.629629629629633,0)" xlink:href="#D"/><use transform="matrix(0.14814814814814817,0,0,0.14814814814814817,29.333333333333336,0)" xlink:href="#B"/><use transform="matrix(0.14814814814814817,0,0,0.14814814814814817,56.000000000000014,0)" xlink:href="#Y"/><use transform="matrix(0.14814814814814817,0,0,0.14814814814814817,85.62962962962965,0)" xlink:href="#N"/><use transform="matrix(0.14814814814814817,0,0,0.14814814814814817,97.33333333333336,0)" xlink:href="#C"/><use transform="matrix(0.14814814814814817,0,0,0.14814814814814817,112.14814814814818,0)" xlink:href="#I"/><use transform="matrix(0.14814814814814817,0,0,0.14814814814814817,141.77777777777783,0)" xlink:href="#C"/><use transform="matrix(0.14814814814814817,0,0,0.14814814814814817,156.59259259259264,0)" xlink:href="#K"/></g><g id="u"><use transform="matrix(0.14814814814814817,0,0,0.14814814814814817,0,0)" xlink:href="#H"/><use transform="matrix(0.14814814814814817,0,0,0.14814814814814817,14.814814814814817,0)" xlink:href="#D"/><use transform="matrix(0.14814814814814817,0,0,0.14814814814814817,26.518518518518523,0)" xlink:href="#E"/><use transform="matrix(0.14814814814814817,0,0,0.14814814814814817,56.14814814814815,0)" xlink:href="#I"/><use transform="matrix(0.14814814814814817,0,0,0.14814814814814817,85.77777777777779,0)" xlink:href="#N"/><use transform="matrix(0.14814814814814817,0,0,0.14814814814814817,97.4814814814815,0)" xlink:href="#A"/></g><path d="M30-248c118-7 216 8 213 122C240-48 200 0 122 0H30v-248zM63-27c89 8 146-16 146-99s-60-101-146-95v194" id="ac"/><path d="M210-169c-67 3-38 105-44 169h-31v-121c0-29-5-50-35-48C34-165 62-65 56 0H25l-1-190h30c1 10-1 24 2 32 10-44 99-50 107 0 11-21 27-35 58-36 85-2 47 119 55 194h-31v-121c0-29-5-49-35-48" id="ad"/><g id="v"><use transform="matrix(0.1851851851851852,0,0,0.1851851851851852,0,0)" xlink:href="#ac"/><use transform="matrix(0.1851851851851852,0,0,0.1851851851851852,47.96296296296297,0)" xlink:href="#K"/><use transform="matrix(0.1851851851851852,0,0,0.1851851851851852,85,0)" xlink:href="#J"/><use transform="matrix(0.1851851851851852,0,0,0.1851851851851852,118.33333333333334,0)" xlink:href="#Y"/><use transform="matrix(0.1851851851851852,0,0,0.1851851851851852,155.37037037037038,0)" xlink:href="#ad"/><use transform="matrix(0.1851851851851852,0,0,0.1851851851851852,210.74074074074076,0)" xlink:href="#A"/><use transform="matrix(0.1851851851851852,0,0,0.1851851851851852,247.7777777777778,0)" xlink:href="#E"/><use transform="matrix(0.1851851851851852,0,0,0.1851851851851852,284.81481481481484,0)" xlink:href="#C"/><use transform="matrix(0.1851851851851852,0,0,0.1851851851851852,303.33333333333337,0)" xlink:href="#I"/><use transform="matrix(0.1851851851851852,0,0,0.1851851851851852,340.37037037037044,0)" xlink:href="#aa"/><use transform="matrix(0.1851851851851852,0,0,0.1851851851851852,373.70370370370375,0)" xlink:href="#D"/><use transform="matrix(0.1851851851851852,0,0,0.1851851851851852,388.33333333333337,0)" xlink:href="#K"/><use transform="matrix(0.1851851851851852,0,0,0.1851851851851852,425.37037037037044,0)" xlink:href="#E"/><use transform="matrix(0.1851851851851852,0,0,0.1851851851851852,462.40740740740756,0)" xlink:href="#A"/></g><g id="w"><use transform="matrix(0.14814814814814817,0,0,0.14814814814814817,0,0)" xlink:href="#Q"/><use transform="matrix(0.14814814814814817,0,0,0.14814814814814817,29.629629629629633,0)" xlink:href="#K"/><use transform="matrix(0.14814814814814817,0,0,0.14814814814814817,59.25925925925927,0)" xlink:href="#J"/><use transform="matrix(0.14814814814814817,0,0,0.14814814814814817,85.92592592592594,0)" xlink:href="#Y"/><use transform="matrix(0.14814814814814817,0,0,0.14814814814814817,115.55555555555557,0)" xlink:href="#ad"/><use transform="matrix(0.14814814814814817,0,0,0.14814814814814817,159.85185185185188,0)" xlink:href="#A"/><use transform="matrix(0.14814814814814817,0,0,0.14814814814814817,189.48148148148155,0)" xlink:href="#E"/><use transform="matrix(0.14814814814814817,0,0,0.14814814814814817,219.11111111111114,0)" xlink:href="#C"/><use transform="matrix(0.14814814814814817,0,0,0.14814814814814817,233.92592592592595,0)" xlink:href="#I"/><use transform="matrix(0.14814814814814817,0,0,0.14814814814814817,263.5555555555556,0)" xlink:href="#aa"/><use transform="matrix(0.14814814814814817,0,0,0.14814814814814817,290.2222222222223,0)" xlink:href="#D"/><use transform="matrix(0.14814814814814817,0,0,0.14814814814814817,301.925925925926,0)" xlink:href="#K"/><use transform="matrix(0.14814814814814817,0,0,0.14814814814814817,331.5555555555556,0)" xlink:href="#E"/><use transform="matrix(0.14814814814814817,0,0,0.14814814814814817,361.1851851851852,0)" xlink:href="#A"/></g><g id="x"><use transform="matrix(0.14814814814814817,0,0,0.14814814814814817,0,0)" xlink:href="#G"/><use transform="matrix(0.14814814814814817,0,0,0.14814814814814817,38.370370370370374,0)" xlink:href="#D"/><use transform="matrix(0.14814814814814817,0,0,0.14814814814814817,50.07407407407407,0)" xlink:href="#J"/><use transform="matrix(0.14814814814814817,0,0,0.14814814814814817,76.74074074074075,0)" xlink:href="#A"/><use transform="matrix(0.14814814814814817,0,0,0.14814814814814817,106.37037037037038,0)" xlink:href="#aa"/><use transform="matrix(0.14814814814814817,0,0,0.14814814814814817,133.03703703703707,0)" xlink:href="#D"/><use transform="matrix(0.14814814814814817,0,0,0.14814814814814817,144.74074074074076,0)" xlink:href="#K"/><use transform="matrix(0.14814814814814817,0,0,0.14814814814814817,174.37037037037038,0)" xlink:href="#E"/><use transform="matrix(0.14814814814814817,0,0,0.14814814814814817,204,0)" xlink:href="#A"/></g><g id="y"><use transform="matrix(0.14814814814814817,0,0,0.14814814814814817,0,0)" xlink:href="#Q"/><use transform="matrix(0.14814814814814817,0,0,0.14814814814814817,29.629629629629633,0)" xlink:href="#K"/><use transform="matrix(0.14814814814814817,0,0,0.14814814814814817,59.25925925925927,0)" xlink:href="#J"/><use transform="matrix(0.14814814814814817,0,0,0.14814814814814817,85.92592592592594,0)" xlink:href="#Y"/><use transform="matrix(0.14814814814814817,0,0,0.14814814814814817,115.55555555555557,0)" xlink:href="#ad"/><use transform="matrix(0.14814814814814817,0,0,0.14814814814814817,159.85185185185188,0)" xlink:href="#A"/><use transform="matrix(0.14814814814814817,0,0,0.14814814814814817,189.48148148148155,0)" xlink:href="#E"/><use transform="matrix(0.14814814814814817,0,0,0.14814814814814817,219.11111111111114,0)" xlink:href="#C"/><use transform="matrix(0.14814814814814817,0,0,0.14814814814814817,233.92592592592595,0)" xlink:href="#I"/><use transform="matrix(0.14814814814814817,0,0,0.14814814814814817,263.5555555555556,0)" xlink:href="#aa"/><use transform="matrix(0.14814814814814817,0,0,0.14814814814814817,290.2222222222223,0)" xlink:href="#D"/><use transform="matrix(0.14814814814814817,0,0,0.14814814814814817,301.925925925926,0)" xlink:href="#K"/><use transform="matrix(0.14814814814814817,0,0,0.14814814814814817,331.5555555555556,0)" xlink:href="#E"/><use transform="matrix(0.14814814814814817,0,0,0.14814814814814817,361.1851851851852,0)" xlink:href="#A"/></g></defs></g></svg>